<svg width="375" height="812" viewBox="0 0 375 812" fill="none" xmlns="http://www.w3.org/2000/svg">
<g clip-path="url(#clip0_1_148)">
<rect width="375" height="812" fill="white"/>
<g clip-path="url(#clip1_1_148)">
<path d="M149.237 157.191C116.215 286.524 -45.9052 161.1 -68.0057 64.9772C-90.1062 -31.1457 -61.2458 -117.74 24.2082 -152.265C109.662 -186.791 179.466 -129.479 217.161 -54.0904C254.856 21.2987 182.258 27.8584 149.237 157.191Z" fill="#F2F5FE"/>
<path d="M405.962 64.9734C463.48 -13.2613 527.361 119.325 527.361 186.372C527.361 253.418 473.009 307.77 405.962 307.77C338.916 307.77 275.716 256.724 284.564 186.372C293.413 116.02 348.445 143.208 405.962 64.9734Z" fill="#004BFE"/>
</g>
</g>
<defs>
<clipPath id="clip0_1_148">
<rect width="375" height="812" fill="white"/>
</clipPath>
<clipPath id="clip1_1_148">
<rect width="659.329" height="513.444" fill="white" transform="translate(-131.968 -205.674)"/>
</clipPath>
</defs>
</svg>
